<?xml version="1.0" encoding="UTF-8"?>
<!DOCTYPE svg PUBLIC "-//W3C//DTD SVG 1.1//EN" "http://www.w3.org/Graphics/SVG/1.1/DTD/svg11.dtd">
<svg xmlns="http://www.w3.org/2000/svg" version="1.1" width="512px" height="512px" style="shape-rendering:geometricPrecision; text-rendering:geometricPrecision; image-rendering:optimizeQuality; fill-rule:evenodd; clip-rule:evenodd" xmlns:xlink="http://www.w3.org/1999/xlink">
<g><path style="opacity:0.989" fill="#f0f1f1" d="M 233.5,-0.5 C 248.167,-0.5 262.833,-0.5 277.5,-0.5C 300.254,2.05373 322.588,7.05373 344.5,14.5C 329.342,15.4962 314.009,15.8295 298.5,15.5C 298.5,29.8333 298.5,44.1667 298.5,58.5C 313.833,58.5 329.167,58.5 344.5,58.5C 344.5,61.1667 344.5,63.8333 344.5,66.5C 328.833,66.5 313.167,66.5 297.5,66.5C 297.177,72.69 297.51,78.69 298.5,84.5C 320.167,84.5 341.833,84.5 363.5,84.5C 363.5,70.5 363.5,56.5 363.5,42.5C 347.5,42.5 331.5,42.5 315.5,42.5C 315.5,39.8333 315.5,37.1667 315.5,34.5C 331.5,34.5 347.5,34.5 363.5,34.5C 363.185,30.6286 363.518,26.9619 364.5,23.5C 437.57,59.256 484.403,116.589 505,195.5C 507.908,208.186 510.075,220.853 511.5,233.5C 511.5,248.167 511.5,262.833 511.5,277.5C 503.31,351.557 470.31,411.89 412.5,458.5C 421.874,345.133 431.541,231.799 441.5,118.5C 317.5,118.5 193.5,118.5 69.5,118.5C 79.4589,231.799 89.1256,345.133 98.5,458.5C 40.6901,411.89 7.69008,351.557 -0.5,277.5C -0.5,262.833 -0.5,248.167 -0.5,233.5C 8.92981,148.778 49.2631,83.2779 120.5,37C 128.749,31.7089 137.415,27.2089 146.5,23.5C 147.497,43.6598 147.83,63.9931 147.5,84.5C 169.167,84.5 190.833,84.5 212.5,84.5C 212.5,78.5 212.5,72.5 212.5,66.5C 196.5,66.5 180.5,66.5 164.5,66.5C 164.5,55.5 164.5,44.5 164.5,33.5C 180.5,33.5 196.5,33.5 212.5,33.5C 212.5,27.5 212.5,21.5 212.5,15.5C 196.991,15.8295 181.658,15.4962 166.5,14.5C 188.412,7.05373 210.746,2.05373 233.5,-0.5 Z"/></g>
<g><path style="opacity:0.993" fill="#232224" d="M 166.5,14.5 C 181.658,15.4962 196.991,15.8295 212.5,15.5C 212.5,21.5 212.5,27.5 212.5,33.5C 196.5,33.5 180.5,33.5 164.5,33.5C 164.5,44.5 164.5,55.5 164.5,66.5C 180.5,66.5 196.5,66.5 212.5,66.5C 212.5,72.5 212.5,78.5 212.5,84.5C 190.833,84.5 169.167,84.5 147.5,84.5C 147.83,63.9931 147.497,43.6598 146.5,23.5C 146.5,20.5 146.5,17.5 146.5,14.5C 153.167,14.5 159.833,14.5 166.5,14.5 Z"/></g>
<g><path style="opacity:0.994" fill="#232224" d="M 344.5,14.5 C 351.167,14.5 357.833,14.5 364.5,14.5C 364.5,17.5 364.5,20.5 364.5,23.5C 363.518,26.9619 363.185,30.6286 363.5,34.5C 347.5,34.5 331.5,34.5 315.5,34.5C 315.5,37.1667 315.5,39.8333 315.5,42.5C 331.5,42.5 347.5,42.5 363.5,42.5C 363.5,56.5 363.5,70.5 363.5,84.5C 341.833,84.5 320.167,84.5 298.5,84.5C 298.5,78.8333 298.5,73.1667 298.5,67.5C 314.167,67.5 329.833,67.5 345.5,67.5C 345.81,64.2869 345.477,61.2869 344.5,58.5C 329.167,58.5 313.833,58.5 298.5,58.5C 298.5,44.1667 298.5,29.8333 298.5,15.5C 314.009,15.8295 329.342,15.4962 344.5,14.5 Z"/></g>
<g><path style="opacity:1" fill="#222123" d="M 288.5,15.5 C 288.5,21.5 288.5,27.5 288.5,33.5C 272.658,33.1704 256.991,33.5037 241.5,34.5C 240.527,36.9479 240.194,39.6146 240.5,42.5C 256.5,42.5 272.5,42.5 288.5,42.5C 288.5,56.5 288.5,70.5 288.5,84.5C 266.833,84.5 245.167,84.5 223.5,84.5C 223.5,78.5 223.5,72.5 223.5,66.5C 239.167,66.5 254.833,66.5 270.5,66.5C 270.5,63.8333 270.5,61.1667 270.5,58.5C 254.833,58.5 239.167,58.5 223.5,58.5C 223.5,44.1667 223.5,29.8333 223.5,15.5C 245.167,15.5 266.833,15.5 288.5,15.5 Z"/></g>
<g><path style="opacity:1" fill="#878687" d="M 288.5,15.5 C 289.49,21.6446 289.823,27.9779 289.5,34.5C 273.5,34.5 257.5,34.5 241.5,34.5C 256.991,33.5037 272.658,33.1704 288.5,33.5C 288.5,27.5 288.5,21.5 288.5,15.5 Z"/></g>
<g><path style="opacity:1" fill="#626163" d="M 344.5,58.5 C 345.477,61.2869 345.81,64.2869 345.5,67.5C 329.833,67.5 314.167,67.5 298.5,67.5C 298.5,73.1667 298.5,78.8333 298.5,84.5C 297.51,78.69 297.177,72.69 297.5,66.5C 313.167,66.5 328.833,66.5 344.5,66.5C 344.5,63.8333 344.5,61.1667 344.5,58.5 Z"/></g>
<g><path style="opacity:1" fill="#056bc0" d="M 412.5,458.5 C 372.739,488.374 328.072,506.04 278.5,511.5C 263.167,511.5 247.833,511.5 232.5,511.5C 182.928,506.04 138.261,488.374 98.5,458.5C 89.1256,345.133 79.4589,231.799 69.5,118.5C 193.5,118.5 317.5,118.5 441.5,118.5C 431.541,231.799 421.874,345.133 412.5,458.5 Z"/></g>
<g><path style="opacity:1" fill="#0596dc" d="M 255.5,457.5 C 287.33,448.115 319.33,439.115 351.5,430.5C 355.224,383.474 359.224,336.474 363.5,289.5C 335.167,288.833 306.833,288.167 278.5,287.5C 307.651,272.424 336.984,257.591 366.5,243C 368.52,227.567 370.187,212.067 371.5,196.5C 294.17,195.5 216.836,195.167 139.5,195.5C 177.996,194.501 216.663,194.168 255.5,194.5C 255.5,179.833 255.5,165.167 255.5,150.5C 305.167,150.5 354.833,150.5 404.5,150.5C 395.55,257.137 386.883,363.804 378.5,470.5C 337.679,481.217 297.012,492.551 256.5,504.5C 255.501,488.848 255.167,473.181 255.5,457.5 Z"/></g>
<g><path style="opacity:1" fill="#fefefe" d="M 139.5,195.5 C 216.836,195.167 294.17,195.5 371.5,196.5C 370.187,212.067 368.52,227.567 366.5,243C 336.984,257.591 307.651,272.424 278.5,287.5C 277.711,287.783 277.044,288.283 276.5,289C 305.498,289.5 334.498,289.667 363.5,289.5C 359.224,336.474 355.224,383.474 351.5,430.5C 319.33,439.115 287.33,448.115 255.5,457.5C 223.602,448.251 191.602,439.251 159.5,430.5C 157.39,406.509 155.39,382.509 153.5,358.5C 169.833,358.5 186.167,358.5 202.5,358.5C 202.487,370.845 202.821,383.178 203.5,395.5C 220.188,399.842 236.855,404.175 253.5,408.5C 253.735,409.097 254.235,409.43 255,409.5C 271.691,404.619 288.525,400.285 305.5,396.5C 307.119,376.831 308.786,357.165 310.5,337.5C 292.167,337.5 273.833,337.5 255.5,337.5C 220.833,337.5 186.167,337.5 151.5,337.5C 150.305,321.655 148.971,305.822 147.5,290C 147.833,289.167 148.167,288.333 148.5,287.5C 177.399,272.884 206.399,258.55 235.5,244.5C 236.043,244.44 236.376,244.107 236.5,243.5C 205.507,242.5 174.507,242.167 143.5,242.5C 142.663,226.787 141.329,211.12 139.5,195.5 Z"/></g>
<g><path style="opacity:1" fill="#d0e3f3" d="M 143.5,242.5 C 174.507,242.167 205.507,242.5 236.5,243.5C 236.376,244.107 236.043,244.44 235.5,244.5C 204.833,243.833 174.167,243.167 143.5,242.5 Z"/></g>
<g><path style="opacity:1" fill="#38ade4" d="M 278.5,287.5 C 306.833,288.167 335.167,288.833 363.5,289.5C 334.498,289.667 305.498,289.5 276.5,289C 277.044,288.283 277.711,287.783 278.5,287.5 Z"/></g>
<g><path style="opacity:1" fill="#0396dc" d="M 255.5,337.5 C 273.833,337.5 292.167,337.5 310.5,337.5C 308.786,357.165 307.119,376.831 305.5,396.5C 288.525,400.285 271.691,404.619 255,409.5C 254.235,409.43 253.735,409.097 253.5,408.5C 255.49,385.19 256.157,361.524 255.5,337.5 Z"/></g>
</svg>
