<?xml version="1.0" encoding="UTF-8"?>
<!DOCTYPE svg PUBLIC "-//W3C//DTD SVG 1.1//EN" "http://www.w3.org/Graphics/SVG/1.1/DTD/svg11.dtd">
<svg xmlns="http://www.w3.org/2000/svg" version="1.1" width="512px" height="512px" style="shape-rendering:geometricPrecision; text-rendering:geometricPrecision; image-rendering:optimizeQuality; fill-rule:evenodd; clip-rule:evenodd" xmlns:xlink="http://www.w3.org/1999/xlink">
<g><path style="opacity:0.997" fill="#ff4d12" d="M 156.5,-0.5 C 189.833,-0.5 223.167,-0.5 256.5,-0.5C 256.5,56.1667 256.5,112.833 256.5,169.5C 225.662,169.169 194.995,169.502 164.5,170.5C 162.5,170.5 160.5,170.5 158.5,170.5C 112.475,160.632 87.4751,132.132 83.5,85C 84.9228,50.463 100.589,24.7964 130.5,8C 138.991,4.22454 147.657,1.39121 156.5,-0.5 Z"/></g>
<g><path style="opacity:0.995" fill="#fe7261" d="M 256.5,-0.5 C 288.833,-0.5 321.167,-0.5 353.5,-0.5C 398.379,10.2279 422.713,38.7279 426.5,85C 422.394,132.595 397.061,161.095 350.5,170.5C 342.5,170.5 334.5,170.5 326.5,170.5C 303.167,170.5 279.833,170.5 256.5,170.5C 225.833,170.5 195.167,170.5 164.5,170.5C 194.995,169.502 225.662,169.169 256.5,169.5C 256.5,112.833 256.5,56.1667 256.5,-0.5 Z"/></g>
<g><path style="opacity:0.997" fill="#b559ff" d="M 158.5,170.5 C 160.5,170.5 162.5,170.5 164.5,170.5C 195.167,170.5 225.833,170.5 256.5,170.5C 256.5,193.5 256.5,216.5 256.5,239.5C 256.5,250.167 256.5,260.833 256.5,271.5C 256.5,294.5 256.5,317.5 256.5,340.5C 224.5,340.5 192.5,340.5 160.5,340.5C 113.419,331.746 88.0852,303.413 84.5,255.5C 88.0599,208.675 112.727,180.342 158.5,170.5 Z"/></g>
<g><path style="opacity:0.992" fill="#00bcff" d="M 326.5,170.5 C 334.5,170.5 342.5,170.5 350.5,170.5C 383.768,174.603 407.268,191.937 421,222.5C 435.318,266.543 423.818,302.043 386.5,329C 351.658,347.416 318.325,345.083 286.5,322C 270.956,308.404 260.956,291.571 256.5,271.5C 256.5,260.833 256.5,250.167 256.5,239.5C 265.944,202.389 289.278,179.389 326.5,170.5 Z"/></g>
<g><path style="opacity:0.996" fill="#01ce7f" d="M 160.5,340.5 C 192.5,340.5 224.5,340.5 256.5,340.5C 256.667,372.502 256.5,404.502 256,436.5C 248.648,477.349 224.815,502.349 184.5,511.5C 175.5,511.5 166.5,511.5 157.5,511.5C 112.617,500.768 88.2832,472.268 84.5,426C 88.6056,378.405 113.939,349.905 160.5,340.5 Z"/></g>
</svg>
