<?xml version="1.0" encoding="UTF-8"?>
<!DOCTYPE svg PUBLIC "-//W3C//DTD SVG 1.1//EN" "http://www.w3.org/Graphics/SVG/1.1/DTD/svg11.dtd">
<svg xmlns="http://www.w3.org/2000/svg" version="1.1" width="512px" height="512px" style="shape-rendering:geometricPrecision; text-rendering:geometricPrecision; image-rendering:optimizeQuality; fill-rule:evenodd; clip-rule:evenodd" xmlns:xlink="http://www.w3.org/1999/xlink">
<g><path style="opacity:0.968" fill="#000000" d="M 107.5,-0.5 C 115.5,-0.5 123.5,-0.5 131.5,-0.5C 131.5,6.83333 131.5,14.1667 131.5,21.5C 138.167,21.5 144.833,21.5 151.5,21.5C 151.5,14.1667 151.5,6.83333 151.5,-0.5C 159.5,-0.5 167.5,-0.5 175.5,-0.5C 175.5,22.5 175.5,45.5 175.5,68.5C 167.5,68.5 159.5,68.5 151.5,68.5C 151.5,60.8333 151.5,53.1667 151.5,45.5C 144.833,45.5 138.167,45.5 131.5,45.5C 131.5,53.1667 131.5,60.8333 131.5,68.5C 123.5,68.5 115.5,68.5 107.5,68.5C 107.5,45.5 107.5,22.5 107.5,-0.5 Z"/></g>
<g><path style="opacity:0.988" fill="#000000" d="M 184.5,-0.5 C 206.167,-0.5 227.833,-0.5 249.5,-0.5C 249.5,7.16667 249.5,14.8333 249.5,22.5C 242.5,22.5 235.5,22.5 228.5,22.5C 228.5,37.8333 228.5,53.1667 228.5,68.5C 220.833,68.5 213.167,68.5 205.5,68.5C 205.5,53.1667 205.5,37.8333 205.5,22.5C 198.5,22.5 191.5,22.5 184.5,22.5C 184.5,14.8333 184.5,7.16667 184.5,-0.5 Z"/></g>
<g><path style="opacity:0.957" fill="#000000" d="M 258.5,-0.5 C 267.167,-0.5 275.833,-0.5 284.5,-0.5C 288.472,7.44034 292.972,15.107 298,22.5C 302.523,14.7782 307.023,7.11154 311.5,-0.5C 320.167,-0.5 328.833,-0.5 337.5,-0.5C 337.5,22.5 337.5,45.5 337.5,68.5C 329.5,68.5 321.5,68.5 313.5,68.5C 313.667,57.8281 313.5,47.1615 313,36.5C 308.316,44.549 303.149,52.2157 297.5,59.5C 292.47,52.3021 287.637,44.9688 283,37.5C 282.5,47.828 282.334,58.1613 282.5,68.5C 274.5,68.5 266.5,68.5 258.5,68.5C 258.5,45.5 258.5,22.5 258.5,-0.5 Z"/></g>
<g><path style="opacity:0.965" fill="#000000" d="M 347.5,-0.5 C 355.5,-0.5 363.5,-0.5 371.5,-0.5C 371.5,14.8333 371.5,30.1667 371.5,45.5C 382.5,45.5 393.5,45.5 404.5,45.5C 404.5,53.1667 404.5,60.8333 404.5,68.5C 385.5,68.5 366.5,68.5 347.5,68.5C 347.5,45.5 347.5,22.5 347.5,-0.5 Z"/></g>
<g><path style="opacity:0.99" fill="#fe4c1e" d="M 259.5,511.5 C 256.833,511.5 254.167,511.5 251.5,511.5C 203.479,497.409 155.146,484.076 106.5,471.5C 95.6201,347.487 84.6201,223.487 73.5,99.5C 194.833,99.5 316.167,99.5 437.5,99.5C 426.604,223.186 415.438,346.853 404,470.5C 355.722,484.108 307.555,497.775 259.5,511.5 Z"/></g>
<g><path style="opacity:1" fill="#ff651e" d="M 254.5,432.5 C 254.833,432.5 255.167,432.5 255.5,432.5C 286.461,424.01 317.461,415.676 348.5,407.5C 352.358,361.155 356.358,314.822 360.5,268.5C 325.671,267.502 290.671,267.168 255.5,267.5C 255.5,252.167 255.5,236.833 255.5,221.5C 292.004,221.832 328.337,221.498 364.5,220.5C 366.469,206.038 367.803,191.372 368.5,176.5C 331.004,175.502 293.337,175.168 255.5,175.5C 255.5,160.5 255.5,145.5 255.5,130.5C 304.833,130.5 354.167,130.5 403.5,130.5C 394.271,235.855 384.771,341.189 375,446.5C 335.208,457.646 295.375,468.646 255.5,479.5C 255.817,463.756 255.484,448.089 254.5,432.5 Z"/></g>
<g><path style="opacity:1" fill="#ece9e8" d="M 255.5,175.5 C 293.337,175.168 331.004,175.502 368.5,176.5C 330.833,176.5 293.167,176.5 255.5,176.5C 255.5,191.167 255.5,205.833 255.5,220.5C 291.833,220.5 328.167,220.5 364.5,220.5C 328.337,221.498 292.004,221.832 255.5,221.5C 234.167,221.5 212.833,221.5 191.5,221.5C 192.907,236.827 194.24,252.16 195.5,267.5C 215.5,267.5 235.5,267.5 255.5,267.5C 290.671,267.168 325.671,267.502 360.5,268.5C 325.5,268.5 290.5,268.5 255.5,268.5C 255.5,283.167 255.5,297.833 255.5,312.5C 221.5,312.5 187.5,312.5 153.5,312.5C 149.74,266.804 145.74,221.137 141.5,175.5C 179.5,175.5 217.5,175.5 255.5,175.5 Z"/></g>
<g><path style="opacity:1" fill="#fffefe" d="M 368.5,176.5 C 367.803,191.372 366.469,206.038 364.5,220.5C 328.167,220.5 291.833,220.5 255.5,220.5C 255.5,205.833 255.5,191.167 255.5,176.5C 293.167,176.5 330.833,176.5 368.5,176.5 Z"/></g>
<g><path style="opacity:1" fill="#fe4c1e" d="M 255.5,221.5 C 255.5,236.833 255.5,252.167 255.5,267.5C 235.5,267.5 215.5,267.5 195.5,267.5C 194.24,252.16 192.907,236.827 191.5,221.5C 212.833,221.5 234.167,221.5 255.5,221.5 Z"/></g>
<g><path style="opacity:1" fill="#fffefe" d="M 360.5,268.5 C 356.358,314.822 352.358,361.155 348.5,407.5C 317.461,415.676 286.461,424.01 255.5,432.5C 255.5,416.833 255.5,401.167 255.5,385.5C 272.379,380.697 289.379,376.364 306.5,372.5C 307.568,354.146 308.901,335.812 310.5,317.5C 311.451,316.081 311.784,314.415 311.5,312.5C 292.833,312.5 274.167,312.5 255.5,312.5C 255.5,297.833 255.5,283.167 255.5,268.5C 290.5,268.5 325.5,268.5 360.5,268.5 Z"/></g>
<g><path style="opacity:1" fill="#f7a891" d="M 153.5,312.5 C 187.5,312.5 221.5,312.5 255.5,312.5C 274.167,312.5 292.833,312.5 311.5,312.5C 311.784,314.415 311.451,316.081 310.5,317.5C 310.5,316.167 310.5,314.833 310.5,313.5C 292.167,313.5 273.833,313.5 255.5,313.5C 221.329,313.832 187.329,313.498 153.5,312.5 Z"/></g>
<g><path style="opacity:1" fill="#ff651e" d="M 255.5,313.5 C 273.833,313.5 292.167,313.5 310.5,313.5C 310.5,314.833 310.5,316.167 310.5,317.5C 308.901,335.812 307.568,354.146 306.5,372.5C 289.379,376.364 272.379,380.697 255.5,385.5C 255.5,361.5 255.5,337.5 255.5,313.5 Z"/></g>
<g><path style="opacity:1" fill="#ebe9e9" d="M 255.5,385.5 C 255.5,401.167 255.5,416.833 255.5,432.5C 255.167,432.5 254.833,432.5 254.5,432.5C 223.671,424.626 193.004,416.126 162.5,407C 160.294,383.234 158.294,359.401 156.5,335.5C 171.5,335.5 186.5,335.5 201.5,335.5C 202.679,347.807 203.679,360.141 204.5,372.5C 221.613,376.455 238.613,380.788 255.5,385.5 Z"/></g>
</svg>
