<?xml version="1.0" encoding="UTF-8"?>
<!DOCTYPE svg PUBLIC "-//W3C//DTD SVG 1.1//EN" "http://www.w3.org/Graphics/SVG/1.1/DTD/svg11.dtd">
<svg xmlns="http://www.w3.org/2000/svg" version="1.1" width="512px" height="512px" style="shape-rendering:geometricPrecision; text-rendering:geometricPrecision; image-rendering:optimizeQuality; fill-rule:evenodd; clip-rule:evenodd" xmlns:xlink="http://www.w3.org/1999/xlink">
<g><path style="opacity:1" fill="#fede00" d="M -0.5,-0.5 C 170.167,-0.5 340.833,-0.5 511.5,-0.5C 511.5,170.167 511.5,340.833 511.5,511.5C 340.833,511.5 170.167,511.5 -0.5,511.5C -0.5,340.833 -0.5,170.167 -0.5,-0.5 Z"/></g>
<g><path style="opacity:1" fill="#020100" d="M 379.5,231.5 C 400.5,230.083 419.833,234.917 437.5,246C 445.674,252.832 452.341,260.832 457.5,270C 445.572,278.214 433.405,286.047 421,293.5C 417.787,290.114 414.787,286.448 412,282.5C 401.841,273.421 390.341,271.254 377.5,276C 366.121,283.61 363.288,293.777 369,306.5C 371.5,309 374,311.5 376.5,314C 393.209,322.572 410.209,330.572 427.5,338C 467.496,358.304 480.33,389.804 466,432.5C 456.031,451.456 440.531,463.29 419.5,468C 386.1,476.318 355.434,470.651 327.5,451C 317.747,443.091 310.08,433.591 304.5,422.5C 317.251,414.707 330.084,407.041 343,399.5C 357.821,424.491 379.321,433.325 407.5,426C 422.133,419.444 426.633,408.611 421,393.5C 419.285,391.241 417.452,389.074 415.5,387C 398.716,377.609 381.383,369.275 363.5,362C 325.395,342.95 311.895,312.783 323,271.5C 334.551,247.967 353.384,234.634 379.5,231.5 Z"/></g>
<g><path style="opacity:1" fill="#010100" d="M 230.5,234.5 C 246.5,234.5 262.5,234.5 278.5,234.5C 278.667,291.168 278.5,347.834 278,404.5C 274.696,448.852 250.696,471.185 206,471.5C 173.006,471.432 149.173,456.766 134.5,427.5C 147.213,419.618 160.046,411.952 173,404.5C 177.046,411.221 181.879,417.387 187.5,423C 197.233,429.186 207.567,430.186 218.5,426C 225.265,421.313 229.099,414.813 230,406.5C 230.5,349.168 230.667,291.834 230.5,234.5 Z"/></g>
</svg>
