<?xml version="1.0" encoding="UTF-8"?>
<!DOCTYPE svg PUBLIC "-//W3C//DTD SVG 1.1//EN" "http://www.w3.org/Graphics/SVG/1.1/DTD/svg11.dtd">
<svg xmlns="http://www.w3.org/2000/svg" version="1.1" width="512px" height="512px" style="shape-rendering:geometricPrecision; text-rendering:geometricPrecision; image-rendering:optimizeQuality; fill-rule:evenodd; clip-rule:evenodd" xmlns:xlink="http://www.w3.org/1999/xlink">
<g><path style="opacity:0.95" fill="#00e9d2" d="M 243.5,-0.5 C 251.167,-0.5 258.833,-0.5 266.5,-0.5C 292.117,5.97691 312.117,20.3102 326.5,42.5C 316.167,42.5 305.833,42.5 295.5,42.5C 268.82,17.1679 242.153,17.1679 215.5,42.5C 205.167,42.5 194.833,42.5 184.5,42.5C 198.68,20.5823 218.347,6.24898 243.5,-0.5 Z"/></g>
<g><path style="opacity:0.944" fill="#00e6d4" d="M 184.5,42.5 C 194.833,42.5 205.167,42.5 215.5,42.5C 210.764,47.2299 206.431,52.2299 202.5,57.5C 193.167,57.5 183.833,57.5 174.5,57.5C 177.092,51.9756 180.425,46.9756 184.5,42.5 Z"/></g>
<g><path style="opacity:0.945" fill="#00e6d4" d="M 295.5,42.5 C 305.833,42.5 316.167,42.5 326.5,42.5C 330.575,46.9756 333.908,51.9756 336.5,57.5C 327.167,57.5 317.833,57.5 308.5,57.5C 304.569,52.2299 300.236,47.2299 295.5,42.5 Z"/></g>
<g><path style="opacity:0.961" fill="#00e2d5" d="M 174.5,57.5 C 183.833,57.5 193.167,57.5 202.5,57.5C 196.262,66.9288 190.595,76.7621 185.5,87C 199.797,90.9008 213.797,95.4008 227.5,100.5C 170.167,100.5 112.833,100.5 55.5,100.5C 68.2857,90.2853 82.9524,84.1186 99.5,82C 119.186,79.9265 138.853,80.0931 158.5,82.5C 159.5,82.1667 160.5,81.8333 161.5,81.5C 165.339,73.1505 169.672,65.1505 174.5,57.5 Z"/></g>
<g><path style="opacity:0.961" fill="#00e2d5" d="M 308.5,57.5 C 317.833,57.5 327.167,57.5 336.5,57.5C 341.313,65.1188 345.647,73.1188 349.5,81.5C 350.5,81.8333 351.5,82.1667 352.5,82.5C 372.145,80.0768 391.812,79.9102 411.5,82C 428.048,84.1186 442.714,90.2853 455.5,100.5C 398.167,100.5 340.833,100.5 283.5,100.5C 297.119,95.1279 311.119,90.6279 325.5,87C 320.405,76.7621 314.738,66.9288 308.5,57.5 Z"/></g>
<g><path style="opacity:0.954" fill="#00ddd7" d="M 55.5,100.5 C 112.833,100.5 170.167,100.5 227.5,100.5C 237.036,103.599 246.369,107.266 255.5,111.5C 264.631,107.266 273.964,103.599 283.5,100.5C 340.833,100.5 398.167,100.5 455.5,100.5C 471.78,113.049 480.78,129.716 482.5,150.5C 474.167,150.5 465.833,150.5 457.5,150.5C 454.962,131.276 444.629,118.109 426.5,111C 418.386,108.11 410.053,106.11 401.5,105C 387.484,104.301 373.484,104.467 359.5,105.5C 364.279,120.283 368.279,135.283 371.5,150.5C 363.5,150.5 355.5,150.5 347.5,150.5C 344,137.859 340.167,125.193 336,112.5C 335.326,111.422 334.326,110.755 333,110.5C 316.684,114.036 300.851,119.036 285.5,125.5C 299.47,133.498 313.137,141.831 326.5,150.5C 311.167,150.5 295.833,150.5 280.5,150.5C 272.031,146.765 263.697,142.765 255.5,138.5C 247.024,142.238 238.69,146.238 230.5,150.5C 215.167,150.5 199.833,150.5 184.5,150.5C 197.441,141.353 211.108,133.186 225.5,126C 210.041,119.348 194.041,114.181 177.5,110.5C 176.353,110.818 175.519,111.484 175,112.5C 170.85,125.109 167.016,137.776 163.5,150.5C 155.5,150.5 147.5,150.5 139.5,150.5C 142.72,135.288 146.72,120.288 151.5,105.5C 128.747,102.22 106.413,104.054 84.5,111C 66.5925,118.322 55.9258,131.489 52.5,150.5C 44.5,150.5 36.5,150.5 28.5,150.5C 29.8389,135.645 35.0056,122.311 44,110.5C 47.4294,106.561 51.2628,103.228 55.5,100.5 Z"/></g>
<g><path style="opacity:0.957" fill="#00d7d9" d="M 28.5,150.5 C 36.5,150.5 44.5,150.5 52.5,150.5C 52.1392,164.644 54.4725,178.311 59.5,191.5C 51.1667,191.5 42.8333,191.5 34.5,191.5C 29.8946,178.263 27.8946,164.597 28.5,150.5 Z"/></g>
<g><path style="opacity:0.959" fill="#00d8d9" d="M 139.5,150.5 C 147.5,150.5 155.5,150.5 163.5,150.5C 162.584,155.898 161.75,161.231 161,166.5C 168.44,160.555 176.274,155.221 184.5,150.5C 199.833,150.5 215.167,150.5 230.5,150.5C 208.496,163.166 187.163,176.832 166.5,191.5C 154.167,191.5 141.833,191.5 129.5,191.5C 130.836,189.99 132.003,188.323 133,186.5C 134.475,174.331 136.642,162.331 139.5,150.5 Z"/></g>
<g><path style="opacity:0.959" fill="#00d8d9" d="M 280.5,150.5 C 295.833,150.5 311.167,150.5 326.5,150.5C 334.726,155.221 342.56,160.555 350,166.5C 349.25,161.231 348.416,155.898 347.5,150.5C 355.5,150.5 363.5,150.5 371.5,150.5C 374.361,162.353 376.527,174.353 378,186.5C 378.997,188.323 380.164,189.99 381.5,191.5C 368.833,191.5 356.167,191.5 343.5,191.5C 323.316,176.575 302.316,162.908 280.5,150.5 Z"/></g>
<g><path style="opacity:0.957" fill="#00d7d9" d="M 457.5,150.5 C 465.833,150.5 474.167,150.5 482.5,150.5C 483.105,164.597 481.105,178.263 476.5,191.5C 468.167,191.5 459.833,191.5 451.5,191.5C 456.857,178.275 458.857,164.608 457.5,150.5 Z"/></g>
<g><path style="opacity:0.958" fill="#00d5da" d="M 34.5,191.5 C 42.8333,191.5 51.1667,191.5 59.5,191.5C 60.4986,194.162 61.4986,196.828 62.5,199.5C 54.1667,199.5 45.8333,199.5 37.5,199.5C 36.129,197.064 35.129,194.397 34.5,191.5 Z"/></g>
<g><path style="opacity:0.947" fill="#00d5da" d="M 129.5,191.5 C 141.833,191.5 154.167,191.5 166.5,191.5C 163.571,194.636 160.238,197.303 156.5,199.5C 144.5,199.5 132.5,199.5 120.5,199.5C 122.88,196.119 125.88,193.453 129.5,191.5 Z"/></g>
<g><path style="opacity:0.948" fill="#00d5da" d="M 343.5,191.5 C 356.167,191.5 368.833,191.5 381.5,191.5C 385.12,193.453 388.12,196.119 390.5,199.5C 378.5,199.5 366.5,199.5 354.5,199.5C 350.618,197.066 346.952,194.399 343.5,191.5 Z"/></g>
<g><path style="opacity:0.952" fill="#00d5da" d="M 451.5,191.5 C 459.833,191.5 468.167,191.5 476.5,191.5C 475.871,194.397 474.871,197.064 473.5,199.5C 465.167,199.5 456.833,199.5 448.5,199.5C 449.129,196.603 450.129,193.936 451.5,191.5 Z"/></g>
<g><path style="opacity:0.961" fill="#00d1dc" d="M 37.5,199.5 C 45.8333,199.5 54.1667,199.5 62.5,199.5C 68.8722,211.9 76.0389,223.9 84,235.5C 95.3914,222.608 107.558,210.608 120.5,199.5C 132.5,199.5 144.5,199.5 156.5,199.5C 153.462,216.292 152.129,233.292 152.5,250.5C 144.5,250.5 136.5,250.5 128.5,250.5C 128.668,241.482 128.835,232.482 129,223.5C 119.902,232.094 111.402,241.094 103.5,250.5C 90.8333,250.5 78.1667,250.5 65.5,250.5C 53.3293,235.167 43.996,218.167 37.5,199.5 Z"/></g>
<g><path style="opacity:0.959" fill="#00d1dc" d="M 354.5,199.5 C 366.5,199.5 378.5,199.5 390.5,199.5C 403.463,210.629 415.629,222.629 427,235.5C 434.948,223.933 442.114,211.933 448.5,199.5C 456.833,199.5 465.167,199.5 473.5,199.5C 466.645,217.981 457.312,234.981 445.5,250.5C 432.833,250.5 420.167,250.5 407.5,250.5C 399.9,241.065 391.4,232.399 382,224.5C 382.145,233.149 382.312,241.815 382.5,250.5C 374.5,250.5 366.5,250.5 358.5,250.5C 358.283,233.355 356.95,216.355 354.5,199.5 Z"/></g>
<g><path style="opacity:0.951" fill="#00d0dc" d="M 300.5,250.5 C 292.5,250.5 284.5,250.5 276.5,250.5C 270.358,234.435 259.358,229.935 243.5,237C 238.641,240.342 235.641,244.842 234.5,250.5C 226.5,250.5 218.5,250.5 210.5,250.5C 212.327,232.839 221.327,220.339 237.5,213C 264.582,204.574 284.748,212.74 298,237.5C 299.631,241.688 300.464,246.021 300.5,250.5 Z"/></g>
<g><path style="opacity:0.959" fill="#00cade" d="M 65.5,250.5 C 78.1667,250.5 90.8333,250.5 103.5,250.5C 102.542,251.962 101.376,253.295 100,254.5C 99.3333,255.167 99.3333,255.833 100,256.5C 108.933,267.436 118.6,277.769 129,287.5C 128.715,275.187 128.549,262.854 128.5,250.5C 136.5,250.5 144.5,250.5 152.5,250.5C 152.008,269.968 153.008,289.301 155.5,308.5C 142.5,308.5 129.5,308.5 116.5,308.5C 105.172,298.005 94.339,287.005 84,275.5C 76.469,285.896 69.969,296.896 64.5,308.5C 55.8333,308.5 47.1667,308.5 38.5,308.5C 45.9147,290.338 55.4147,273.338 67,257.5C 67.6004,254.905 67.1004,252.571 65.5,250.5 Z"/></g>
<g><path style="opacity:0.951" fill="#00cbde" d="M 210.5,250.5 C 218.5,250.5 226.5,250.5 234.5,250.5C 232.759,266.111 239.759,275.111 255.5,277.5C 271.241,275.111 278.241,266.111 276.5,250.5C 284.5,250.5 292.5,250.5 300.5,250.5C 302.074,272.17 293.074,288.004 273.5,298C 244.84,306.58 224.34,297.413 212,270.5C 209.823,263.779 209.323,257.112 210.5,250.5 Z"/></g>
<g><path style="opacity:0.959" fill="#00cade" d="M 358.5,250.5 C 366.5,250.5 374.5,250.5 382.5,250.5C 382.443,262.52 382.277,274.52 382,286.5C 392.569,277.353 402.236,267.353 411,256.5C 411.667,255.833 411.667,255.167 411,254.5C 409.624,253.295 408.458,251.962 407.5,250.5C 420.167,250.5 432.833,250.5 445.5,250.5C 444.763,252.305 443.763,253.971 442.5,255.5C 454.816,271.793 464.816,289.459 472.5,308.5C 463.833,308.5 455.167,308.5 446.5,308.5C 441.019,296.868 434.519,285.868 427,275.5C 416.661,287.005 405.828,298.005 394.5,308.5C 381.5,308.5 368.5,308.5 355.5,308.5C 357.409,289.224 358.409,269.891 358.5,250.5 Z"/></g>
<g><path style="opacity:0.951" fill="#00c6e0" d="M 38.5,308.5 C 47.1667,308.5 55.8333,308.5 64.5,308.5C 61.5819,313.92 59.2486,319.586 57.5,325.5C 49.1667,325.5 40.8333,325.5 32.5,325.5C 34.1291,319.608 36.1291,313.941 38.5,308.5 Z"/></g>
<g><path style="opacity:0.951" fill="#00c6e0" d="M 116.5,308.5 C 129.5,308.5 142.5,308.5 155.5,308.5C 155.511,310.017 156.177,311.184 157.5,312C 163.354,316.364 169.021,320.864 174.5,325.5C 160.833,325.5 147.167,325.5 133.5,325.5C 132.732,324.737 132.232,323.737 132,322.5C 126.638,317.968 121.472,313.301 116.5,308.5 Z"/></g>
<g><path style="opacity:0.948" fill="#00c6e0" d="M 355.5,308.5 C 368.5,308.5 381.5,308.5 394.5,308.5C 390.693,312.135 386.693,315.635 382.5,319C 380.174,320.805 378.508,322.972 377.5,325.5C 363.5,325.5 349.5,325.5 335.5,325.5C 341.253,320.777 347.253,316.277 353.5,312C 354.823,311.184 355.489,310.017 355.5,308.5 Z"/></g>
<g><path style="opacity:0.95" fill="#00c6e0" d="M 446.5,308.5 C 455.167,308.5 463.833,308.5 472.5,308.5C 474.893,314.011 476.893,319.677 478.5,325.5C 470.167,325.5 461.833,325.5 453.5,325.5C 451.443,319.719 449.11,314.053 446.5,308.5 Z"/></g>
<g><path style="opacity:0.955" fill="#00c3e1" d="M 32.5,325.5 C 40.8333,325.5 49.1667,325.5 57.5,325.5C 53.9747,335.841 52.308,346.507 52.5,357.5C 44.5,357.5 36.5,357.5 28.5,357.5C 28.2493,346.593 29.5826,335.927 32.5,325.5 Z"/></g>
<g><path style="opacity:0.96" fill="#00c3e1" d="M 133.5,325.5 C 147.167,325.5 160.833,325.5 174.5,325.5C 190.904,336.569 207.57,347.235 224.5,357.5C 209.5,357.5 194.5,357.5 179.5,357.5C 172.936,353.775 166.769,349.442 161,344.5C 161.374,348.873 162.208,353.207 163.5,357.5C 155.167,357.5 146.833,357.5 138.5,357.5C 136.184,346.939 134.518,336.272 133.5,325.5 Z"/></g>
<g><path style="opacity:0.96" fill="#00c3e1" d="M 335.5,325.5 C 349.5,325.5 363.5,325.5 377.5,325.5C 376.482,336.272 374.816,346.939 372.5,357.5C 364.167,357.5 355.833,357.5 347.5,357.5C 348.792,353.207 349.626,348.873 350,344.5C 343.873,349.474 337.373,353.807 330.5,357.5C 315.833,357.5 301.167,357.5 286.5,357.5C 303.309,347.593 319.642,336.927 335.5,325.5 Z"/></g>
<g><path style="opacity:0.953" fill="#00c3e1" d="M 453.5,325.5 C 461.833,325.5 470.167,325.5 478.5,325.5C 481.074,335.994 482.407,346.66 482.5,357.5C 474.5,357.5 466.5,357.5 458.5,357.5C 458.467,346.563 456.8,335.896 453.5,325.5 Z"/></g>
<g><path style="opacity:0.952" fill="#00bee3" d="M 28.5,357.5 C 36.5,357.5 44.5,357.5 52.5,357.5C 53.4741,372.286 59.8075,384.119 71.5,393C 88.4431,402.958 106.776,407.791 126.5,407.5C 134.875,406.928 143.208,405.928 151.5,404.5C 146.384,389.037 142.051,373.37 138.5,357.5C 146.833,357.5 155.167,357.5 163.5,357.5C 166.411,371.403 170.244,385.07 175,398.5C 175.519,399.516 176.353,400.182 177.5,400.5C 194.145,397.175 210.145,392.009 225.5,385C 209.607,376.562 194.273,367.396 179.5,357.5C 194.5,357.5 209.5,357.5 224.5,357.5C 234.664,362.748 244.997,367.748 255.5,372.5C 266.003,367.748 276.336,362.748 286.5,357.5C 301.167,357.5 315.833,357.5 330.5,357.5C 316.231,367.645 301.231,376.812 285.5,385C 300.959,391.652 316.959,396.819 333.5,400.5C 334.647,400.182 335.481,399.516 336,398.5C 340.755,385.071 344.588,371.405 347.5,357.5C 355.833,357.5 364.167,357.5 372.5,357.5C 368.949,373.37 364.616,389.037 359.5,404.5C 367.574,406.032 375.74,406.699 384,406.5C 405.891,408.071 425.724,402.571 443.5,390C 452.679,381.139 457.679,370.306 458.5,357.5C 466.5,357.5 474.5,357.5 482.5,357.5C 481.465,374.449 475.632,389.449 465,402.5C 462.914,405.094 460.414,407.094 457.5,408.5C 397.833,408.5 338.167,408.5 278.5,408.5C 270.632,406.098 262.966,403.098 255.5,399.5C 248.034,403.098 240.368,406.098 232.5,408.5C 172.5,408.5 112.5,408.5 52.5,408.5C 37.2718,395.038 29.2718,378.038 28.5,357.5 Z"/></g>
<g><path style="opacity:0.965" fill="#00b9e4" d="M 52.5,408.5 C 112.5,408.5 172.5,408.5 232.5,408.5C 217.288,414.727 201.622,419.894 185.5,424C 191.297,435.773 197.964,446.94 205.5,457.5C 195.833,457.5 186.167,457.5 176.5,457.5C 170.701,448.235 165.701,438.568 161.5,428.5C 139.137,431.298 116.804,431.132 94.5,428C 78.7545,424.957 64.7545,418.457 52.5,408.5 Z"/></g>
<g><path style="opacity:0.963" fill="#00b9e4" d="M 278.5,408.5 C 338.167,408.5 397.833,408.5 457.5,408.5C 445.759,418.701 432.092,425.201 416.5,428C 395.194,431.131 373.861,431.297 352.5,428.5C 351.5,428.833 350.5,429.167 349.5,429.5C 344.996,439.178 339.996,448.512 334.5,457.5C 324.833,457.5 315.167,457.5 305.5,457.5C 313.036,446.94 319.703,435.773 325.5,424C 309.378,419.894 293.712,414.727 278.5,408.5 Z"/></g>
<g><path style="opacity:0.944" fill="#00b4e6" d="M 176.5,457.5 C 186.167,457.5 195.833,457.5 205.5,457.5C 212.907,466.243 221.24,473.91 230.5,480.5C 218.167,480.5 205.833,480.5 193.5,480.5C 187.113,473.406 181.447,465.739 176.5,457.5 Z"/></g>
<g><path style="opacity:0.946" fill="#00b4e6" d="M 305.5,457.5 C 315.167,457.5 324.833,457.5 334.5,457.5C 329.219,465.448 323.552,473.115 317.5,480.5C 305.167,480.5 292.833,480.5 280.5,480.5C 289.76,473.91 298.093,466.243 305.5,457.5 Z"/></g>
<g><path style="opacity:0.953" fill="#00b1e8" d="M 193.5,480.5 C 205.833,480.5 218.167,480.5 230.5,480.5C 247.198,489.83 263.865,489.83 280.5,480.5C 292.833,480.5 305.167,480.5 317.5,480.5C 303.756,496.254 286.756,506.587 266.5,511.5C 258.833,511.5 251.167,511.5 243.5,511.5C 223.396,506.778 206.73,496.445 193.5,480.5 Z"/></g>
</svg>
