<?xml version="1.0" encoding="UTF-8"?>
<!DOCTYPE svg PUBLIC "-//W3C//DTD SVG 1.1//EN" "http://www.w3.org/Graphics/SVG/1.1/DTD/svg11.dtd">
<svg xmlns="http://www.w3.org/2000/svg" version="1.1" width="512px" height="512px" style="shape-rendering:geometricPrecision; text-rendering:geometricPrecision; image-rendering:optimizeQuality; fill-rule:evenodd; clip-rule:evenodd" xmlns:xlink="http://www.w3.org/1999/xlink">
<g><path style="opacity:0.996" fill="#95bf47" d="M 222.5,-0.5 C 229.167,-0.5 235.833,-0.5 242.5,-0.5C 251.163,1.67237 258.496,6.17237 264.5,13C 285.826,13.2419 301.993,22.4085 313,40.5C 317.159,47.8164 320.492,55.483 323,63.5C 329.856,60.4922 337.023,58.8255 344.5,58.5C 344.5,209.5 344.5,360.5 344.5,511.5C 342.5,511.5 340.5,511.5 338.5,511.5C 235.68,493.196 132.68,475.196 29.5,457.5C 41.3373,362.135 53.5039,266.802 66,171.5C 66.8529,162.002 68.5196,152.668 71,143.5C 73.2513,141.623 75.7513,140.123 78.5,139C 96.5,133.333 114.5,127.667 132.5,122C 139.721,87.6361 154.221,56.8028 176,29.5C 188.439,14.5439 203.939,4.54394 222.5,-0.5 Z M 227.5,16.5 C 233.865,15.9013 239.865,17.0679 245.5,20C 233.38,27.1193 223.547,36.6193 216,48.5C 205.487,65.5259 198.32,83.8592 194.5,103.5C 180.87,106.987 167.37,110.987 154,115.5C 159.783,86.9273 172.45,61.2606 192,38.5C 201.994,27.9333 213.827,20.6 227.5,16.5 Z M 276.5,32.5 C 288.401,37.2326 296.901,45.566 302,57.5C 303.306,60.6123 304.472,63.7789 305.5,67C 305.355,67.772 305.022,68.4387 304.5,69C 297.464,71.0676 290.464,73.2343 283.5,75.5C 282.554,60.9246 280.22,46.5912 276.5,32.5 Z M 255.5,34.5 C 256.496,34.4142 257.329,34.7476 258,35.5C 263.243,50.3625 265.743,65.6958 265.5,81.5C 248.727,86.0906 232.06,91.0906 215.5,96.5C 219.356,75.9608 228.689,58.1274 243.5,43C 247.391,39.8989 251.391,37.0656 255.5,34.5 Z"/></g>
<g><path style="opacity:1" fill="#6f9d41" d="M 344.5,58.5 C 345.791,58.2627 346.791,58.596 347.5,59.5C 345.501,209.496 344.835,359.83 345.5,510.5C 346.833,510.5 348.167,510.5 349.5,510.5C 349.5,510.833 349.5,511.167 349.5,511.5C 347.833,511.5 346.167,511.5 344.5,511.5C 344.5,360.5 344.5,209.5 344.5,58.5 Z"/></g>
<g><path style="opacity:1" fill="#5e8e3e" d="M 347.5,59.5 C 359.277,70.1061 370.943,80.9394 382.5,92C 396.157,92.8607 409.824,93.5274 423.5,94C 424.893,95.1711 425.727,96.6711 426,98.5C 444.829,225.134 463.329,351.8 481.5,478.5C 437.499,489.167 393.499,499.834 349.5,510.5C 348.167,510.5 346.833,510.5 345.5,510.5C 344.835,359.83 345.501,209.496 347.5,59.5 Z"/></g>
<g><path style="opacity:1" fill="#fefefe" d="M 225.5,158.5 C 240.177,157.483 254.51,159.15 268.5,163.5C 263.797,183.643 258.464,203.643 252.5,223.5C 237.008,217.12 221.008,215.287 204.5,218C 187.25,222.676 181.083,233.51 186,250.5C 187.812,253.28 189.979,255.78 192.5,258C 205.167,266.667 217.833,275.333 230.5,284C 259.058,309.36 266.891,340.193 254,376.5C 243.537,403.298 224.037,418.464 195.5,422C 168.392,424.915 143.726,418.582 121.5,403C 118.154,400.988 115.488,398.321 113.5,395C 117.246,380.515 120.913,366.015 124.5,351.5C 136.683,360.09 150.016,366.257 164.5,370C 184.534,372.957 194.034,364.457 193,344.5C 190.362,336.727 185.862,330.227 179.5,325C 170.322,318.577 161.322,311.911 152.5,305C 140.2,293.903 133.034,280.069 131,263.5C 128.71,216.486 149.21,183.986 192.5,166C 203.386,162.359 214.386,159.859 225.5,158.5 Z"/></g>
</svg>
