<?xml version="1.0" encoding="UTF-8"?>
<!DOCTYPE svg PUBLIC "-//W3C//DTD SVG 1.1//EN" "http://www.w3.org/Graphics/SVG/1.1/DTD/svg11.dtd">
<svg xmlns="http://www.w3.org/2000/svg" version="1.1" width="512px" height="512px" style="shape-rendering:geometricPrecision; text-rendering:geometricPrecision; image-rendering:optimizeQuality; fill-rule:evenodd; clip-rule:evenodd" xmlns:xlink="http://www.w3.org/1999/xlink">
<g><path style="opacity:0.94" fill="#00769d" d="M 233.5,-0.5 C 248.167,-0.5 262.833,-0.5 277.5,-0.5C 367.555,10.0943 435.388,54.4276 481,132.5C 497.855,164.278 508.022,197.945 511.5,233.5C 511.5,248.167 511.5,262.833 511.5,277.5C 500.906,367.555 456.572,435.388 378.5,481C 346.722,497.855 313.055,508.022 277.5,511.5C 262.833,511.5 248.167,511.5 233.5,511.5C 143.445,500.906 75.612,456.572 30,378.5C 13.1449,346.722 2.97822,313.055 -0.5,277.5C -0.5,262.833 -0.5,248.167 -0.5,233.5C 10.0943,143.445 54.4276,75.612 132.5,30C 164.278,13.1449 197.945,2.97822 233.5,-0.5 Z M 235.5,18.5 C 321.583,14.4723 391.416,45.8057 445,112.5C 496.801,185.808 506.468,264.475 474,348.5C 434.525,432.939 368.359,480.772 275.5,492C 189.394,496.517 119.561,465.35 66,398.5C 14.1989,325.192 4.53225,246.525 37,162.5C 76.6321,78.0488 142.799,30.0488 235.5,18.5 Z"/></g>
<g><path style="opacity:0.981" fill="#00769d" d="M 249.5,40.5 C 308.59,39.9617 359.59,59.6283 402.5,99.5C 374.668,101.165 360.168,115.831 359,143.5C 359.725,145.949 360.725,148.283 362,150.5C 370.058,161.56 377.725,172.893 385,184.5C 398.034,209.401 402.034,235.734 397,263.5C 395.667,269.5 394.333,275.5 393,281.5C 382.585,313.082 371.585,344.415 360,375.5C 334.078,303.238 308.245,230.905 282.5,158.5C 292.812,157.501 303.145,157.168 313.5,157.5C 313.5,150.833 313.5,144.167 313.5,137.5C 269.833,137.5 226.167,137.5 182.5,137.5C 182.5,144.167 182.5,150.833 182.5,157.5C 192.522,157.168 202.522,157.501 212.5,158.5C 223.896,189.688 234.896,221.021 245.5,252.5C 231.484,293.717 216.984,334.717 202,375.5C 175.684,303.39 149.851,231.056 124.5,158.5C 133.81,157.502 143.143,157.168 152.5,157.5C 152.5,150.833 152.5,144.167 152.5,137.5C 127.158,137.833 101.825,137.5 76.5,136.5C 118.526,76.6465 176.193,44.6465 249.5,40.5 Z"/></g>
<g><path style="opacity:0.968" fill="#00769d" d="M 441.5,149.5 C 460.687,181.88 470.354,217.047 470.5,255C 467.437,340.012 429.271,403.512 356,445.5C 383.213,366.867 411.046,288.367 439.5,210C 439.043,209.586 438.709,209.086 438.5,208.5C 443.422,189.024 444.422,169.358 441.5,149.5 Z"/></g>
<g><path style="opacity:0.97" fill="#00769d" d="M 57.5,171.5 C 58.4972,171.47 59.1639,171.97 59.5,173C 92.103,263.676 123.936,354.509 155,445.5C 81.5804,403.38 43.4138,339.714 40.5,254.5C 40.9452,225.726 46.6118,198.059 57.5,171.5 Z"/></g>
<g><path style="opacity:0.977" fill="#00769d" d="M 255.5,282.5 C 277.301,341.394 298.634,400.561 319.5,460C 275.679,474.114 232.012,473.781 188.5,459C 211.13,400.277 233.463,341.443 255.5,282.5 Z"/></g>
</svg>
